<?xml version="1.0" encoding="UTF-8" standalone="no"?>
<!-- Created with Inkscape (http://www.inkscape.org/) -->

<svg
   xmlns:dc="http://purl.org/dc/elements/1.1/"
   xmlns:cc="http://creativecommons.org/ns#"
   xmlns:rdf="http://www.w3.org/1999/02/22-rdf-syntax-ns#"
   xmlns:svg="http://www.w3.org/2000/svg"
   xmlns="http://www.w3.org/2000/svg"
   xmlns:sodipodi="http://sodipodi.sourceforge.net/DTD/sodipodi-0.dtd"
   xmlns:inkscape="http://www.inkscape.org/namespaces/inkscape"
   height="100"
   width="100"
   version="1.1"
   viewBox="0 0 100 99.999998"
   id="svg2"
   inkscape:version="0.91 r13725"
   sodipodi:docname="logo.svg">
  <defs
     id="defs18" />
  <sodipodi:namedview
     pagecolor="#ffffff"
     bordercolor="#666666"
     borderopacity="1"
     objecttolerance="10"
     gridtolerance="10"
     guidetolerance="10"
     inkscape:pageopacity="0"
     inkscape:pageshadow="2"
     inkscape:window-width="1305"
     inkscape:window-height="744"
     id="namedview16"
     showgrid="false"
     fit-margin-top="0"
     fit-margin-left="0"
     fit-margin-right="0"
     fit-margin-bottom="0"
     inkscape:showpageshadow="false"
     inkscape:zoom="3.9333333"
     inkscape:cx="75.619574"
     inkscape:cy="51.532701"
     inkscape:window-x="61"
     inkscape:window-y="24"
     inkscape:window-maximized="1"
     inkscape:current-layer="svg2" />
  <title
     id="title4">Node-RED Icon</title>
  <metadata
     id="metadata6">
    <rdf:RDF>
      <cc:Work
         rdf:about="">
        <dc:format>image/svg+xml</dc:format>
        <dc:type
           rdf:resource="http://purl.org/dc/dcmitype/StillImage" />
        <dc:title>Node-RED Icon</dc:title>
        <cc:license
           rdf:resource="http://creativecommons.org/licenses/by/3.0/" />
        <dc:creator>
          <cc:Agent>
            <dc:title>Nick O'Leary</dc:title>
          </cc:Agent>
        </dc:creator>
      </cc:Work>
      <cc:License
         rdf:about="http://creativecommons.org/licenses/by/3.0/">
        <cc:permits
           rdf:resource="http://creativecommons.org/ns#Reproduction" />
        <cc:permits
           rdf:resource="http://creativecommons.org/ns#Distribution" />
        <cc:requires
           rdf:resource="http://creativecommons.org/ns#Notice" />
        <cc:requires
           rdf:resource="http://creativecommons.org/ns#Attribution" />
        <cc:permits
           rdf:resource="http://creativecommons.org/ns#DerivativeWorks" />
      </cc:License>
    </rdf:RDF>
  </metadata>
  <g
     transform="matrix(0.22321049,0,0,0.22321429,-3.3588565,-130.77466)"
     id="g8">
    <rect
       style="color:#000000;isolation:auto;mix-blend-mode:normal;solid-color:#000000;fill:#8f0000;color-rendering:auto;image-rendering:auto;shape-rendering:auto"
       ry="56"
       height="448"
       width="448"
       y="588.35999"
       x="16"
       id="rect10" />
    <g
       transform="matrix(8.545,0,0,8.545,-786.19,-1949.8)"
       id="g12">
      <path
         style="color:#000000;text-indent:0;text-decoration:none;text-decoration-line:none;text-decoration-style:solid;text-decoration-color:#000000;text-transform:none;block-progression:tb;white-space:normal;isolation:auto;mix-blend-mode:normal;solid-color:#000000;fill:#ffffff;color-rendering:auto;image-rendering:auto;shape-rendering:auto"
         d="m 104.41,321.21 c 0.0138,-2.3846 -1.905,-4.2806 -4.2896,-4.2806 l -6.243,0 0,2.9257 6.243,0 c 0.80513,0 1.4808,0.58383 1.4808,1.389 l 0,4.2422 c 0,0.80513 -0.67566,1.5075 -1.4808,1.5075 l -6.243,0 0,2.8086 6.243,0 c 2.3846,0 4.2895,-1.9315 4.2895,-4.3162 l -5e-5,-1.9812 c 9.8659,0.14125 12.737,2.7065 15.877,5.4519 3.0241,2.6446 6.4153,5.4869 15.252,5.557 l 4.6e-4,0.97238 c 0.001,2.3846 1.9543,4.3803 4.3389,4.3803 l 6.4273,0 0,-3.0427 -6.4273,0 c -0.80514,0 -1.4135,-0.53255 -1.4135,-1.3377 l 0,-4.2422 c 0,-0.80513 0.60835,-1.4418 1.4135,-1.4418 l 6.4273,0 0,-2.8086 -6.4273,0 c -2.3846,0 -4.3379,1.8658 -4.3389,4.2504 l -4.5e-4,1.005 c -8.351,-0.0276 -10.723,-2.3434 -13.76,-4.9992 -2.5914,-2.2662 -5.6368,-4.7578 -12.346,-5.6642 0.0583,-0.0501 0.11211,-0.0987 0.16838,-0.15027 1.2918,-1.1846 1.9884,-2.6158 2.6699,-3.8516 0.68148,-1.2357 1.3227,-2.267 2.373,-2.9879 0.85207,-0.58483 2.0639,-1.0208 3.926,-1.1017 l 1.8e-4,0.99192 c 4.3e-4,2.3846 1.9236,4.4325 4.3083,4.4325 l 17.242,0 c 2.3846,0 4.3127,-2.0479 4.3127,-4.4325 l 0,-4.2422 c 0,-2.3846 -1.9281,-4.3153 -4.3127,-4.3153 l -17.242,0 c -2.3846,0 -4.3095,1.9306 -4.3083,4.3153 l 5.1e-4,0.98395 c -2.2474,0.0903 -3.9508,0.6357 -5.2079,1.4985 -1.5245,1.0464 -2.3662,2.4764 -3.0762,3.7637 -0.70992,1.2873 -1.3108,2.4408 -2.2188,3.2734 -0.79034,0.72475 -1.8834,1.2844 -3.658,1.493 z m 18.468,-12.356 17.242,0 c 0.80514,0 1.387,0.58455 1.387,1.3897 l 0,4.2422 c 0,0.80514 -0.5819,1.3898 -1.387,1.3898 l -17.242,0 c -0.80514,0 -1.4994,-0.58462 -1.4994,-1.3898 l 0,-4.2422 c 0,-0.80513 0.69431,-1.3897 1.4994,-1.3897 z"
         id="path14"
         inkscape:connector-curvature="0" />
    </g>
  </g>
</svg>
